<svg xmlns="http://www.w3.org/2000/svg" width="512" height="512" viewBox="0 0 512 512" version="1.1"><path d="M428.74,201.43v-.06L428.3,200c0-.1-.06-.19-.1-.29l-2.68-8.27-.21.07A181.19,181.19,0,0,0,265,75.1v-.22H247v.22A181.16,181.16,0,0,0,86.7,191.53l-.22-.07L83.7,200v0l-2.77,8.53.22.08A181,181,0,0,0,142.4,397.05l-.15.2,7.27,5.29h0l7.27,5.29.13-.18a181.22,181.22,0,0,0,198.12,0l.13.18,7.27-5.29h0l7.27-5.29-.15-.2a180.76,180.76,0,0,0,67.52-141A180.78,180.78,0,0,0,428.74,201.43Zm-20.57-4.33L265,243.62V93.12A162.63,162.63,0,0,1,408.17,197.1ZM247,93.12v150.5L103.83,197.1A162.63,162.63,0,0,1,247,93.12ZM92.88,256a163.21,163.21,0,0,1,5.4-41.78l143.16,46.52-53.6,73.77-34.86,48A163.81,163.81,0,0,1,92.88,256ZM256,419.13a161.82,161.82,0,0,1-88.47-26.05L256,271.32l88.47,121.76A161.82,161.82,0,0,1,256,419.13Zm103-36.65-35.76-49.22-52.7-72.52,143.16-46.52A163.39,163.39,0,0,1,359,382.48Z" stroke="none" fill="black" fill-rule="evenodd"/></svg>